<svg width="41" height="54" viewBox="0 0 41 54" fill="none" xmlns="http://www.w3.org/2000/svg">
<path d="M19.8719 0.342598C8.68173 0.670726 0.0556641 10.2208 0.0556641 21.1719V48.6638C0.0556641 50.1492 1.89034 50.8919 2.96367 49.8419L5.61719 47.9117C6.32636 47.3961 7.32089 47.4961 7.90761 48.1419L12.481 53.1784C13.1465 53.8295 14.2252 53.8295 14.8907 53.1784L19.2266 48.4023C19.9049 47.6555 21.0964 47.6555 21.7736 48.4023L26.1095 53.1784C26.7751 53.8295 27.8537 53.8295 28.5192 53.1784L33.0926 48.1419C33.6793 47.4961 34.6739 47.395 35.383 47.9117L38.0365 49.8419C39.1099 50.8919 40.9445 50.1482 40.9445 48.6638V20.3334C40.9445 9.08329 31.4496 0.00301257 19.8719 0.342598ZM13.6853 23.6667C11.8038 23.6667 10.2779 22.174 10.2779 20.3334C10.2779 18.4927 11.8038 17 13.6853 17C15.5668 17 17.0927 18.4927 17.0927 20.3334C17.0927 22.174 15.5668 23.6667 13.6853 23.6667ZM27.3149 23.6667C25.4334 23.6667 23.9075 22.174 23.9075 20.3334C23.9075 18.4927 25.4334 17 27.3149 17C29.1964 17 30.7223 18.4927 30.7223 20.3334C30.7223 22.174 29.1964 23.6667 27.3149 23.6667Z" fill="#EEEEEE"/>
</svg>
